<svg version="1.1" viewBox="0.0 0.0 232.56430446194227 167.7769028871391" fill="none" stroke="none" stroke-linecap="square" stroke-miterlimit="10" xmlns:xlink="http://www.w3.org/1999/xlink" xmlns="http://www.w3.org/2000/svg"><clipPath id="p.0"><path d="m0 0l232.5643 0l0 167.7769l-232.5643 0l0 -167.7769z" clip-rule="nonzero"/></clipPath><g clip-path="url(#p.0)"><path fill="#000000" fill-opacity="0.0" d="m0 0l232.5643 0l0 167.7769l-232.5643 0z" fill-rule="evenodd"/><path fill="#000000" fill-opacity="0.0" d="m27.055119 0l195.77953 0l0 168.94489l-195.77953 0z" fill-rule="evenodd"/><path fill="#ffffff" d="m89.69574 137.0l0 -8.71875q-6.578125 10.28125 -19.328125 10.28125q-8.265621 0 -15.203121 -4.546875q-6.9375 -4.5625 -10.75 -12.734375q-3.796875 -8.171875 -3.796875 -18.78125q0 -10.359375 3.4375 -18.78125q3.453125 -8.4375 10.359375 -12.921875q6.90625 -4.5 15.421871 -4.5q6.25 0 11.125 2.640625q4.890625 2.640625 7.953125 6.859375l0 -34.234375l11.65625 0l0 95.4375l-10.875 0zm-37.04687 -34.5q0 13.28125 5.59375 19.859375q5.609375 6.5625 13.234371 6.5625q7.671875 0 13.046875 -6.28125q5.375 -6.28125 5.375 -19.171875q0 -14.1875 -5.46875 -20.828125q-5.46875 -6.640625 -13.484375 -6.640625q-7.812496 0 -13.062496 6.390625q-5.234375 6.375 -5.234375 20.109375zm67.32263 34.5l0 -95.4375l35.8125 0q10.9375 0 17.53125 2.90625q6.609375 2.890625 10.34375 8.921875q3.75 6.015625 3.75 12.578125q0 6.125 -3.328125 11.53125q-3.3125 5.40625 -10.015625 8.71875q8.65625 2.546875 13.3125 8.671875q4.65625 6.109375 4.65625 14.4375q0 6.703125 -2.828125 12.46875q-2.828125 5.765625 -7.0 8.890625q-4.171875 3.125 -10.453125 4.71875q-6.28125 1.59375 -15.390625 1.59375l-36.390625 0zm12.625 -55.34375l20.640625 0q8.40625 0 12.046875 -1.09375q4.8125 -1.4375 7.25 -4.75q2.453125 -3.328125 2.453125 -8.34375q0 -4.75 -2.28125 -8.359375q-2.28125 -3.609375 -6.515625 -4.9375q-4.234375 -1.34375 -14.515625 -1.34375l-19.078125 0l0 28.828125zm0 44.078125l23.765625 0q6.125 0 8.59375 -0.453125q4.359375 -0.78125 7.28125 -2.59375q2.9375 -1.828125 4.828125 -5.3125q1.890625 -3.484375 1.890625 -8.046875q0 -5.328125 -2.734375 -9.265625q-2.734375 -3.953125 -7.59375 -5.546875q-4.84375 -1.59375 -13.953125 -1.59375l-22.078125 0l0 32.8125z" fill-rule="nonzero"/><path fill="#000000" fill-opacity="0.0" d="m32.05678 160.92914c-6.643097 0 -12.028391 -5.3852997 -12.028391 -12.028397l0 -48.116447c0 -6.643097 -5.385294 -12.028389 -12.028391 -12.028389c6.643097 0 12.028391 -5.385292 12.028391 -12.028389l0 -48.116447l0 0c0 -6.643095 5.385294 -12.028389 12.028391 -12.028389l172.92581 0c3.1901245 0 6.249588 1.267273 8.505356 3.5230331c2.2557678 2.2557602 3.5230408 5.3152294 3.5230408 8.505356l0 48.116447c0 6.643097 5.3852844 12.028389 12.028381 12.028389c-6.643097 0 -12.028381 5.385292 -12.028381 12.028389l0 48.116447c0 6.643097 -5.3852997 12.028397 -12.028397 12.028397z" fill-rule="evenodd"/><path fill="#000000" fill-opacity="0.0" d="m32.05678 160.92914c-6.643097 0 -12.028391 -5.3852997 -12.028391 -12.028397l0 -48.116447c0 -6.643097 -5.385294 -12.028389 -12.028391 -12.028389c6.643097 0 12.028391 -5.385292 12.028391 -12.028389l0 -48.116447l0 0c0 -6.643095 5.385294 -12.028389 12.028391 -12.028389m172.92581 0c3.1901245 0 6.249588 1.267273 8.505356 3.5230331c2.2557678 2.2557602 3.5230408 5.3152294 3.5230408 8.505356l0 48.116447c0 6.643097 5.3852844 12.028389 12.028381 12.028389c-6.643097 0 -12.028381 5.385292 -12.028381 12.028389l0 48.116447c0 6.643097 -5.3852997 12.028397 -12.028397 12.028397" fill-rule="evenodd"/><path stroke="#d9d9d9" stroke-width="4.0" stroke-linejoin="round" stroke-linecap="butt" d="m32.05678 160.92914c-6.643097 0 -12.028391 -5.3852997 -12.028391 -12.028397l0 -48.116447c0 -6.643097 -5.385294 -12.028389 -12.028391 -12.028389c6.643097 0 12.028391 -5.385292 12.028391 -12.028389l0 -48.116447l0 0c0 -6.643095 5.385294 -12.028389 12.028391 -12.028389m172.92581 0c3.1901245 0 6.249588 1.267273 8.505356 3.5230331c2.2557678 2.2557602 3.5230408 5.3152294 3.5230408 8.505356l0 48.116447c0 6.643097 5.3852844 12.028389 12.028381 12.028389c-6.643097 0 -12.028381 5.385292 -12.028381 12.028389l0 48.116447c0 6.643097 -5.3852997 12.028397 -12.028397 12.028397" fill-rule="evenodd"/></g></svg>